<svg xmlns="http://www.w3.org/2000/svg" width="55" height="60" viewBox="0 0 55 60" fill="none"><path d="M49.3499 0H44.0599C41.2099 0 38.8899 2.32 38.8899 5.17V53.86C38.8899 56.71 41.2099 59.03 44.0599 59.03H49.3499C52.1999 59.03 54.5099 56.71 54.5099 53.86V5.16C54.5199 2.31 52.1999 0 49.3499 0ZM52.5199 53.86C52.5199 55.61 51.0999 57.03 49.3599 57.03H44.0699C42.3199 57.03 40.8999 55.61 40.8999 53.86V5.16C40.8999 3.41 42.3199 1.99 44.0699 1.99H49.3599C51.1099 1.99 52.5199 3.41 52.5199 5.16V53.86Z" fill="url(#paint0_linear_19_505)"></path><path d="M29.4 20.33H24.11C21.26 20.33 18.95 22.65 18.95 25.5V53.86C18.95 56.71 21.27 59.03 24.11 59.03H29.4C32.25 59.03 34.57 56.71 34.57 53.86V25.5C34.57 22.65 32.25 20.33 29.4 20.33ZM32.57 53.86C32.57 55.61 31.15 57.03 29.4 57.03H24.11C22.36 57.03 20.95 55.61 20.95 53.86V25.5C20.95 23.75 22.37 22.33 24.11 22.33H29.4C31.15 22.33 32.57 23.75 32.57 25.5V53.86Z" fill="url(#paint1_linear_19_505)"></path><path d="M9.45 58.02H4.16C1.86 58.02 0 56.16 0 53.86V42.53C0 40.23 1.86 38.37 4.16 38.37H9.45C11.75 38.37 13.61 40.23 13.61 42.53V53.86C13.62 56.16 11.75 58.02 9.45 58.02Z" fill="white"></path><defs><linearGradient id="paint0_linear_19_505" x1="57.5535" y1="-0.0282504" x2="26.092" y2="6.73445" gradientUnits="userSpaceOnUse"><stop stop-color="#04B4B7"></stop><stop offset="1" stop-color="#407CBF"></stop></linearGradient><linearGradient id="paint1_linear_19_505" x1="37.6136" y1="20.3115" x2="7.89332" y2="30.0558" gradientUnits="userSpaceOnUse"><stop stop-color="#04B4B7"></stop><stop offset="1" stop-color="#407CBF"></stop></linearGradient></defs></svg>