<svg xmlns="http://www.w3.org/2000/svg" width="43" height="59" viewBox="0 0 43 59" fill="none"><path d="M36.79 5.90795C36.09 2.55795 33.12 0.0279541 29.56 0.0279541H0V48.208H7.89V58.218L14.39 54.838L20.89 58.218V48.218H29.56C33.63 48.218 36.94 44.908 36.94 40.838V8.06795C39.33 9.02795 40.97 11.368 40.97 14.068V42.338C40.97 47.548 36.74 51.778 31.53 51.778H24.5V53.778H31.53C37.84 53.778 42.97 48.648 42.97 42.338V14.068C42.98 10.198 40.4 6.91795 36.79 5.90795ZM34.95 40.828C34.95 43.798 32.53 46.208 29.57 46.208H2V2.03795H29.56C32.53 2.03795 34.94 4.44795 34.94 7.41795V40.828H34.95Z" fill="url(#paint0_linear_19_494)"></path><path d="M22.04 24.128V15.098H15.15V24.128H11.03L14.81 28.368L18.59 32.618L22.37 28.368L26.16 24.128H22.04Z" fill="white"></path><defs><linearGradient id="paint0_linear_19_494" x1="51.3429" y1="0.000105691" x2="-15.2451" y2="39.9434" gradientUnits="userSpaceOnUse"><stop stop-color="#04B4B7"></stop><stop offset="1" stop-color="#407CBF"></stop></linearGradient></defs></svg>