<svg xmlns="http://www.w3.org/2000/svg" width="60" height="59" viewBox="0 0 60 59" fill="none"><path d="M11.16 29.6179C11.7068 29.6179 12.15 29.1747 12.15 28.6279C12.15 28.0812 11.7068 27.6379 11.16 27.6379C10.6133 27.6379 10.17 28.0812 10.17 28.6279C10.17 29.1747 10.6133 29.6179 11.16 29.6179Z" fill="white"></path><path d="M20.39 29.6179C20.9368 29.6179 21.38 29.1747 21.38 28.6279C21.38 28.0812 20.9368 27.6379 20.39 27.6379C19.8433 27.6379 19.4 28.0812 19.4 28.6279C19.4 29.1747 19.8433 29.6179 20.39 29.6179Z" fill="white"></path><path d="M29.7 29.6179C30.2467 29.6179 30.69 29.1747 30.69 28.6279C30.69 28.0812 30.2467 27.6379 29.7 27.6379C29.1532 27.6379 28.71 28.0812 28.71 28.6279C28.71 29.1747 29.1532 29.6179 29.7 29.6179Z" fill="white"></path><path d="M39.09 29.6179C39.6367 29.6179 40.08 29.1747 40.08 28.6279C40.08 28.0812 39.6367 27.6379 39.09 27.6379C38.5432 27.6379 38.1 28.0812 38.1 28.6279C38.1 29.1747 38.5432 29.6179 39.09 29.6179Z" fill="white"></path><path d="M48.5 29.6179C49.0468 29.6179 49.49 29.1747 49.49 28.6279C49.49 28.0812 49.0468 27.6379 48.5 27.6379C47.9532 27.6379 47.51 28.0812 47.51 28.6279C47.51 29.1747 47.9532 29.6179 48.5 29.6179Z" fill="white"></path><path d="M11.16 38.958C11.7068 38.958 12.15 38.5147 12.15 37.968C12.15 37.4212 11.7068 36.978 11.16 36.978C10.6133 36.978 10.17 37.4212 10.17 37.968C10.17 38.5147 10.6133 38.958 11.16 38.958Z" fill="white"></path><path d="M20.39 38.958C20.9368 38.958 21.38 38.5147 21.38 37.968C21.38 37.4212 20.9368 36.978 20.39 36.978C19.8433 36.978 19.4 37.4212 19.4 37.968C19.4 38.5147 19.8433 38.958 20.39 38.958Z" fill="white"></path><path d="M29.7 38.958C30.2467 38.958 30.69 38.5147 30.69 37.968C30.69 37.4212 30.2467 36.978 29.7 36.978C29.1532 36.978 28.71 37.4212 28.71 37.968C28.71 38.5147 29.1532 38.958 29.7 38.958Z" fill="white"></path><path d="M39.09 38.958C39.6367 38.958 40.08 38.5147 40.08 37.968C40.08 37.4212 39.6367 36.978 39.09 36.978C38.5432 36.978 38.1 37.4212 38.1 37.968C38.1 38.5147 38.5432 38.958 39.09 38.958Z" fill="white"></path><path d="M48.5 38.958C49.0468 38.958 49.49 38.5147 49.49 37.968C49.49 37.4212 49.0468 36.978 48.5 36.978C47.9532 36.978 47.51 37.4212 47.51 37.968C47.51 38.5147 47.9532 38.958 48.5 38.958Z" fill="white"></path><path d="M11.16 48.298C11.7068 48.298 12.15 47.8547 12.15 47.308C12.15 46.7612 11.7068 46.318 11.16 46.318C10.6133 46.318 10.17 46.7612 10.17 47.308C10.17 47.8547 10.6133 48.298 11.16 48.298Z" fill="white"></path><path d="M20.39 48.298C20.9368 48.298 21.38 47.8547 21.38 47.308C21.38 46.7612 20.9368 46.318 20.39 46.318C19.8433 46.318 19.4 46.7612 19.4 47.308C19.4 47.8547 19.8433 48.298 20.39 48.298Z" fill="white"></path><path d="M29.7 48.298C30.2467 48.298 30.69 47.8547 30.69 47.308C30.69 46.7612 30.2467 46.318 29.7 46.318C29.1532 46.318 28.71 46.7612 28.71 47.308C28.71 47.8547 29.1532 48.298 29.7 48.298Z" fill="white"></path><path d="M39.09 48.298C39.6367 48.298 40.08 47.8547 40.08 47.308C40.08 46.7612 39.6367 46.318 39.09 46.318C38.5432 46.318 38.1 46.7612 38.1 47.308C38.1 47.8547 38.5432 48.298 39.09 48.298Z" fill="white"></path><path d="M48.5 48.298C49.0468 48.298 49.49 47.8547 49.49 47.308C49.49 46.7612 49.0468 46.318 48.5 46.318C47.9532 46.318 47.51 46.7612 47.51 47.308C47.51 47.8547 47.9532 48.298 48.5 48.298Z" fill="white"></path><path d="M54.72 6.86795H49.6V4.87795C49.6 2.20795 47.42 0.0279541 44.75 0.0279541C42.08 0.0279541 39.9 2.19795 39.9 4.87795V6.86795H20.03V4.89795C20.03 2.22795 17.85 0.0479541 15.18 0.0479541C12.51 0.0479541 10.33 2.21795 10.33 4.89795V6.85795H5.12C2.3 6.85795 0 9.14795 0 11.978V53.318C0 56.138 2.29 58.438 5.12 58.438H54.72C57.54 58.438 59.84 56.148 59.84 53.318V11.978C59.83 9.15795 57.54 6.86795 54.72 6.86795ZM41.9 4.87795C41.9 3.30795 43.18 2.02795 44.75 2.02795C46.32 2.02795 47.6 3.30795 47.6 4.87795V9.28795C47.6 10.858 46.32 12.138 44.75 12.138C43.18 12.138 41.9 10.858 41.9 9.28795V4.87795ZM12.34 4.89795C12.34 3.32795 13.62 2.04795 15.19 2.04795C16.76 2.04795 18.04 3.32795 18.04 4.89795V9.30795C18.04 10.878 16.76 12.158 15.19 12.158C13.62 12.158 12.34 10.878 12.34 9.30795V4.89795ZM5.12 8.86795H10.34V9.31795C10.34 11.988 12.52 14.168 15.19 14.168C17.86 14.168 20.03 11.988 20.03 9.31795V8.86795H39.89V9.29795C39.89 11.968 42.07 14.148 44.74 14.148C47.41 14.148 49.59 11.978 49.59 9.29795V8.86795H54.71C56.43 8.86795 57.83 10.268 57.83 11.988V17.478H2V11.988C2 10.258 3.4 8.86795 5.12 8.86795ZM54.72 56.428H5.12C3.4 56.428 2 55.028 2 53.308V19.468H57.83V53.308C57.83 55.038 56.44 56.428 54.72 56.428Z" fill="url(#paint0_linear_19_515)"></path><defs><linearGradient id="paint0_linear_19_515" x1="71.5" y1="4.0294e-07" x2="-3" y2="62" gradientUnits="userSpaceOnUse"><stop stop-color="#04B4B7"></stop><stop offset="1" stop-color="#407CBF"></stop></linearGradient></defs></svg>