<svg xmlns="http://www.w3.org/2000/svg" width="66" height="66" viewBox="0 0 66 66" fill="none"><path d="M33.95 30.2679C34.21 30.2679 34.43 30.2679 34.64 30.2679C35.41 30.2679 36.17 30.2679 36.94 30.2679C37.33 30.2679 37.47 30.4079 37.47 30.7979C37.47 31.8479 37.47 32.8979 37.47 33.9479C37.47 34.3179 37.32 34.4579 36.95 34.4579C35.96 34.4579 34.98 34.4579 33.96 34.4579C33.95 34.5879 33.94 34.6979 33.94 34.8179C33.94 37.4479 33.94 40.0779 33.94 42.7079C33.94 43.2679 33.82 43.3879 33.27 43.3879C32.28 43.3879 31.3 43.3879 30.31 43.3879C29.72 43.3879 29.62 43.2879 29.62 42.7079C29.62 40.0779 29.62 37.4479 29.62 34.8179C29.62 34.4579 29.62 34.4579 29.27 34.4579C28.55 34.4579 27.83 34.4579 27.11 34.4579C26.68 34.4579 26.54 34.338 26.54 33.918C26.54 32.888 26.54 31.8579 26.54 30.8179C26.54 30.3979 26.68 30.2679 27.1 30.2679C27.85 30.2679 28.6 30.2579 29.35 30.2679C29.56 30.2679 29.63 30.2079 29.63 29.9879C29.62 29.1879 29.6 28.3779 29.64 27.5779C29.71 26.0179 30.27 24.6779 31.59 23.7479C32.38 23.1879 33.29 22.9379 34.24 22.9079C35.19 22.8779 36.14 22.898 37.09 22.898C37.44 22.898 37.6 23.048 37.6 23.398C37.61 24.388 37.61 25.3679 37.6 26.3579C37.6 26.7279 37.45 26.8579 37.07 26.8579C36.43 26.8679 35.79 26.8479 35.15 26.8779C34.28 26.9179 33.96 27.2679 33.95 28.1379C33.95 28.8379 33.95 29.5279 33.95 30.2679Z" fill="white"></path><path d="M65.76 32.918C65.76 28.338 62.05 24.618 57.48 24.588C54.75 17.078 48.77 11.248 41.19 8.71795C41.2 8.59795 41.21 8.47795 41.21 8.35795C41.21 3.76795 37.47 0.0279541 32.88 0.0279541C28.29 0.0279541 24.55 3.76795 24.55 8.35795C24.55 8.47795 24.56 8.59795 24.57 8.71795C16.98 11.248 11.01 17.068 8.28 24.588C3.71 24.618 0 28.338 0 32.918C0 37.348 3.48 40.978 7.86 41.218C10.33 49.258 16.61 55.698 24.61 58.368C25.06 62.538 28.6 65.788 32.89 65.788C37.18 65.788 40.71 62.528 41.17 58.368C49.16 55.698 55.45 49.258 57.92 41.218C62.28 40.978 65.76 37.358 65.76 32.918ZM32.88 2.03795C36.37 2.03795 39.21 4.87795 39.21 8.36795C39.21 11.858 36.37 14.698 32.88 14.698C29.39 14.698 26.56 11.858 26.56 8.36795C26.56 4.87795 29.39 2.03795 32.88 2.03795ZM2 32.918C2 29.428 4.84 26.588 8.33 26.588C11.82 26.588 14.66 29.428 14.66 32.918C14.66 36.408 11.82 39.248 8.33 39.248C4.84 39.248 2 36.408 2 32.918ZM32.88 63.798C29.39 63.798 26.55 60.958 26.55 57.468C26.55 53.978 29.39 51.138 32.88 51.138C36.37 51.138 39.21 53.978 39.21 57.468C39.21 60.958 36.37 63.798 32.88 63.798ZM41.12 56.288C40.54 52.258 37.07 49.148 32.89 49.148C28.7 49.148 25.24 52.258 24.66 56.288C17.7 53.768 12.23 48.118 9.92 41.098C13.76 40.358 16.67 36.978 16.67 32.928C16.67 29.018 13.96 25.748 10.33 24.848C12.87 18.208 18.18 13.058 24.9 10.718C25.92 14.168 29.11 16.698 32.88 16.698C36.65 16.698 39.84 14.168 40.86 10.728C47.57 13.068 52.89 18.218 55.44 24.848C51.81 25.748 49.1 29.018 49.1 32.928C49.1 36.978 52.01 40.368 55.85 41.098C53.55 48.118 48.07 53.768 41.12 56.288ZM57.43 39.248C53.94 39.248 51.1 36.408 51.1 32.918C51.1 29.428 53.94 26.588 57.43 26.588C60.92 26.588 63.76 29.428 63.76 32.918C63.76 36.408 60.92 39.248 57.43 39.248Z" fill="url(#paint0_linear_19_497)"></path><defs><linearGradient id="paint0_linear_19_497" x1="78.5735" y1="-0.00351714" x2="-4.90995" y2="67.8124" gradientUnits="userSpaceOnUse"><stop stop-color="#04B4B7"></stop><stop offset="1" stop-color="#407CBF"></stop></linearGradient></defs></svg>