<svg xmlns="http://www.w3.org/2000/svg" width="38" height="53" viewBox="0 0 38 53" fill="none"><path d="M24.75 0.0279541H13.13C5.89 0.0279541 0 5.91795 0 13.158V34.188C0 44.368 8.28 52.648 18.46 52.648H19.42C29.6 52.648 37.88 44.368 37.88 34.188V13.158C37.88 5.91795 31.99 0.0279541 24.75 0.0279541ZM13.13 2.02795H17.98V11.978H19.98V2.02795H24.74C30.88 2.02795 35.87 7.01795 35.87 13.158V16.958H2V13.158C2 7.01795 7 2.02795 13.13 2.02795ZM19.42 50.648H18.46C9.38 50.648 2 43.268 2 34.188V18.958H35.87V34.188C35.88 43.258 28.49 50.648 19.42 50.648Z" fill="url(#paint0_linear_19_502)"></path><path d="M19.32 21.888H18.6C16.56 21.888 14.91 20.238 14.91 18.198V13.598C14.91 11.558 16.56 9.90796 18.6 9.90796H19.32C21.36 9.90796 23.01 11.558 23.01 13.598V18.198C23.01 20.238 21.36 21.888 19.32 21.888Z" fill="white"></path><defs><linearGradient id="paint0_linear_19_502" x1="45.261" y1="0.00277137" x2="-14.2207" y2="34.7863" gradientUnits="userSpaceOnUse"><stop stop-color="#04B4B7"></stop><stop offset="1" stop-color="#407CBF"></stop></linearGradient></defs></svg>