<svg xmlns="http://www.w3.org/2000/svg" width="60" height="42" viewBox="0 0 60 42" fill="none"><path d="M55.62 33.618V5.23795C55.62 2.36795 53.28 0.0279541 50.41 0.0279541H9.54C6.64 0.0279541 4.28 2.38795 4.28 5.28795V33.618H0V36.738C0 39.638 2.36 41.998 5.26 41.998H54.22C57.17 41.998 59.58 39.598 59.58 36.638V33.618H55.62ZM6.28 5.28795C6.28 3.48795 7.74 2.02795 9.54 2.02795H50.4C52.18 2.02795 53.62 3.46795 53.62 5.23795V33.618H6.28V5.28795ZM57.57 36.648C57.57 38.498 56.06 40.008 54.21 40.008H5.26C3.46 40.008 2 38.548 2 36.748V35.628H4.28H55.62H57.58V36.648H57.57Z" fill="url(#paint0_linear_19_511)"></path><path d="M48.11 29.548H11.79C11.24 29.548 10.79 29.098 10.79 28.548V8.34796C10.79 7.79796 11.24 7.34796 11.79 7.34796H48.11C48.66 7.34796 49.11 7.79796 49.11 8.34796V28.548C49.11 29.098 48.66 29.548 48.11 29.548ZM12.79 27.548H47.11V9.34796H12.79V27.548Z" fill="white"></path><defs><linearGradient id="paint0_linear_19_511" x1="71.1893" y1="0.00786821" x2="17.3007" y2="62.1505" gradientUnits="userSpaceOnUse"><stop stop-color="#04B4B7"></stop><stop offset="1" stop-color="#407CBF"></stop></linearGradient></defs></svg>